<?xml version="1.0" standalone="no"?>
<!DOCTYPE svg PUBLIC "-//W3C//DTD SVG 20010904//EN"
 "http://www.w3.org/TR/2001/REC-SVG-20010904/DTD/svg10.dtd">
<svg version="1.0" xmlns="http://www.w3.org/2000/svg"
 width="1922.000000pt" height="602.000000pt" viewBox="0 0 1922.000000 602.000000"
 preserveAspectRatio="xMidYMid meet">
<metadata>
Created by potrace 1.16, written by Peter Selinger 2001-2019
</metadata>
<g transform="translate(0.000000,602.000000) scale(0.100000,-0.100000)"
fill="#000000" stroke="none">
<path d="M13166 5001 c-3 -5 -34 -12 -68 -16 -35 -4 -81 -11 -103 -17 -159
-39 -243 -65 -259 -80 -6 -4 -17 -8 -25 -8 -24 0 -177 -77 -276 -138 -305
-190 -543 -476 -692 -832 -20 -47 -41 -105 -48 -130 -90 -311 -100 -380 -99
-675 0 -199 10 -335 32 -421 6 -22 16 -64 22 -94 14 -62 64 -220 84 -265 58
-129 127 -257 184 -342 197 -296 479 -523 802 -648 25 -10 54 -21 65 -25 11
-5 45 -15 75 -23 30 -9 75 -21 100 -27 225 -61 662 -56 905 10 44 12 89 24
100 27 11 3 29 9 40 14 11 4 45 18 75 30 220 84 444 235 607 408 45 48 59 70
53 81 -5 9 -41 38 -81 65 -87 59 -220 151 -234 163 -40 31 -137 92 -147 92 -7
0 -31 -16 -53 -36 -74 -67 -179 -142 -255 -181 -196 -103 -361 -137 -625 -130
-177 4 -211 10 -360 60 -292 99 -519 305 -660 602 -21 44 -42 94 -46 110 -5
17 -16 55 -24 85 -89 297 -68 775 44 1035 46 106 88 182 162 291 42 61 169
181 247 233 136 91 289 156 425 180 32 6 62 13 67 16 6 3 87 6 182 6 170 0
237 -9 378 -50 180 -52 342 -151 489 -302 43 -43 82 -79 87 -79 6 0 66 39 134
86 69 47 162 110 207 140 45 31 94 67 108 80 l26 24 -21 30 c-35 49 -231 243
-295 292 -82 62 -258 169 -325 197 -30 13 -73 31 -95 41 -68 30 -131 49 -290
88 -22 6 -68 13 -102 17 -35 4 -63 11 -63 16 0 12 -447 12 -454 0z"/>
<path d="M6815 4968 c-134 -33 -221 -77 -305 -156 -102 -94 -154 -182 -209
-352 -39 -124 -47 -166 -67 -340 -26 -234 -11 -502 50 -905 19 -124 22 -167
13 -182 -15 -24 -224 -75 -384 -93 -113 -12 -260 -2 -393 26 -135 29 -275 90
-372 161 -161 118 -249 265 -299 497 -25 116 -27 400 -3 526 46 248 111 473
198 685 l46 110 -301 3 c-265 2 -303 0 -313 -13 -12 -17 -84 -238 -111 -340
-9 -33 -21 -75 -26 -92 -10 -31 -16 -65 -39 -193 -5 -30 -14 -84 -21 -120 -19
-105 -16 -528 5 -625 28 -131 46 -209 55 -230 5 -11 24 -58 42 -105 87 -227
240 -422 451 -572 99 -71 334 -188 377 -188 9 0 21 -4 26 -9 14 -13 171 -47
376 -82 123 -21 395 -7 553 28 83 18 93 12 70 -48 -71 -179 -252 -364 -424
-433 -25 -10 -54 -22 -65 -27 -11 -5 -36 -14 -55 -20 -299 -90 -672 -89 -945
3 -33 11 -73 24 -90 28 -34 8 -135 53 -240 106 -92 46 -252 154 -303 204 -22
22 -43 40 -46 40 -3 0 -6 -148 -6 -329 l0 -329 68 -44 c66 -44 232 -128 251
-128 5 0 22 -6 38 -14 104 -52 358 -126 503 -146 174 -25 265 -31 365 -26 307
18 543 67 743 158 35 15 65 28 68 28 2 0 33 18 69 40 36 22 68 40 71 40 3 0
44 29 89 65 98 76 217 203 288 306 51 76 154 280 168 334 4 16 12 44 18 60 10
31 30 104 50 188 6 26 11 63 11 82 0 19 5 57 11 84 10 47 14 53 77 92 257 161
503 419 632 662 79 150 102 218 140 427 22 119 27 354 9 442 -21 107 -41 184
-56 223 -106 270 -283 434 -536 494 -56 13 -266 13 -322 -1z m255 -586 c14
-11 37 -36 51 -58 75 -111 78 -285 11 -544 -28 -107 -117 -252 -219 -357 -76
-78 -71 -81 -92 57 -7 41 -19 112 -28 156 -10 57 -15 149 -16 305 -1 196 1
231 18 284 32 100 75 157 131 175 40 13 114 3 144 -18z"/>
<path d="M880 3110 l0 -1840 280 0 280 0 0 658 c0 361 3 667 6 679 l6 22 677
3 c480 3 685 7 706 15 17 6 64 19 105 29 41 9 80 20 85 24 6 4 23 10 39 14 55
13 194 84 297 152 186 121 345 305 427 493 18 40 32 80 32 87 0 8 4 22 9 32
18 32 39 157 45 257 7 116 -6 283 -27 370 -30 119 -35 133 -76 216 -147 299
-431 511 -796 592 -158 36 -199 37 -1149 37 l-946 0 0 -1840z m1905 1290 c78
-11 83 -13 179 -61 192 -95 290 -270 290 -519 1 -174 -55 -317 -171 -441 -47
-51 -131 -112 -193 -140 -156 -72 -129 -70 -825 -67 l-620 3 -3 595 c-1 327 0
605 3 618 l5 22 633 0 c358 0 662 -5 702 -10z"/>
<path d="M8065 4938 c-3 -7 -4 -834 -3 -1838 l3 -1825 280 0 280 0 5 1403 c4
1257 7 1401 20 1385 19 -22 39 -52 538 -798 218 -324 418 -624 446 -665 28
-41 55 -83 61 -92 11 -19 565 -845 675 -1006 38 -57 70 -107 70 -112 0 -5 3
-10 8 -12 4 -1 23 -27 42 -56 l35 -52 335 2 335 3 0 1835 0 1835 -276 3 -277
2 -6 -22 c-3 -13 -6 -643 -6 -1400 0 -825 -4 -1378 -9 -1378 -7 0 -798 1172
-896 1328 -5 8 -42 63 -82 121 -39 58 -90 135 -113 171 -23 36 -209 315 -413
620 l-372 555 -338 3 c-265 2 -339 0 -342 -10z"/>
<path d="M15245 4918 c-3 -18 -4 -845 -3 -1838 l3 -1805 280 0 280 0 5 785 5
785 887 3 888 2 2 -787 3 -788 280 0 280 0 0 1835 0 1835 -276 3 -277 2 -6
-22 c-3 -13 -6 -364 -6 -781 l0 -757 -887 2 -888 3 -5 775 -5 775 -277 3 -277
2 -6 -32z"/>
</g>
</svg>
